HIERARCHY
ROOT Hips
{
	OFFSET -0.001795 -0.223333 0.028219
	CHANNELS 6 Xposition Yposition Zposition Zrotation Yrotation Xrotation 
	JOINT LeftUpLeg
	{
		OFFSET 0.069520 -0.091406 -0.006815
		CHANNELS 3 Zrotation Yrotation Xrotation
		JOINT LeftLeg
		{
			OFFSET 0.034277 -0.375199 -0.004496
			CHANNELS 3 Zrotation Yrotation Xrotation
			JOINT LeftFoot
			{
				OFFSET -0.013596 -0.397961 -0.043693
				CHANNELS 3 Zrotation Yrotation Xrotation
				JOINT LeftToe
				{
					OFFSET 0.026358 -0.055791 0.119288
					CHANNELS 3 Zrotation Yrotation Xrotation
					End Site
					{
						OFFSET 0.000000 0.000000 0.000000
					}
				}
			}
		}
	}
	JOINT RightUpLeg
	{
		OFFSET -0.067670 -0.090522 -0.004320
		CHANNELS 3 Zrotation Yrotation Xrotation
		JOINT RightLeg
		{
			OFFSET -0.038290 -0.382569 -0.008850
			CHANNELS 3 Zrotation Yrotation Xrotation
			JOINT RightFoot
			{
				OFFSET 0.015774 -0.398415 -0.042312
				CHANNELS 3 Zrotation Yrotation Xrotation
				JOINT RightToe
				{
					OFFSET -0.025372 -0.048144 0.123348
					CHANNELS 3 Zrotation Yrotation Xrotation
					End Site
					{
						OFFSET 0.000000 0.000000 0.000000
					}
				}
			}
		}
	}
	JOINT Spine
	{
		OFFSET -0.002533 0.108963 -0.026696
		CHANNELS 3 Zrotation Yrotation Xrotation
		JOINT Spine1
		{
			OFFSET 0.005487 0.135180 0.001092
			CHANNELS 3 Zrotation Yrotation Xrotation
			JOINT Spine2
			{
				OFFSET 0.001457 0.052922 0.025425
				CHANNELS 3 Zrotation Yrotation Xrotation
				JOINT Neck
				{
					OFFSET -0.002778 0.213870 -0.042857
					CHANNELS 3 Zrotation Yrotation Xrotation
					JOINT Head
					{
						OFFSET 0.005152 0.064970 0.051349
						CHANNELS 3 Zrotation Yrotation Xrotation
						End Site
						{
							OFFSET 0.000000 0.000000 0.000000
						}
					}
				}
				JOINT LeftShoulder
				{
					OFFSET 0.078845 0.121749 -0.034090
					CHANNELS 3 Zrotation Yrotation Xrotation
					JOINT LeftArm
					{
						OFFSET 0.090977 0.030469 -0.008868
						CHANNELS 3 Zrotation Yrotation Xrotation
						JOINT LeftForeArm
						{
							OFFSET 0.259612 -0.012772 -0.027456
							CHANNELS 3 Zrotation Yrotation Xrotation
							JOINT LeftHand
							{
								OFFSET 0.249234 0.008986 -0.001171
								CHANNELS 3 Zrotation Yrotation Xrotation
								End Site
								{
									OFFSET 0.000000 0.000000 0.000000
								}
							}
						}
					}
				}
				JOINT RightShoulder
				{
					OFFSET -0.081759 0.118833 -0.038615
					CHANNELS 3 Zrotation Yrotation Xrotation
					JOINT RightArm
					{
						OFFSET -0.096012 0.032551 -0.009143
						CHANNELS 3 Zrotation Yrotation Xrotation
						JOINT RightForeArm
						{
							OFFSET -0.253742 -0.013329 -0.021401
							CHANNELS 3 Zrotation Yrotation Xrotation
							JOINT RightHand
							{
								OFFSET -0.255298 0.007772 -0.005559
								CHANNELS 3 Zrotation Yrotation Xrotation
								End Site
								{
									OFFSET 0.000000 0.000000 0.000000
								}
							}
						}
					}
				}
			}
		}
	}
}
MOTION
Frames: 16
Frame Time: 0.050000
-0.347097 0.914919 1.292396 -174.530195 55.200279 -172.752061 -3.362627 -0.567828 -7.989044 -7.206083 -8.603821 24.494678 30.626623 9.428008 8.817075 0.000000 0.000000 0.000000 2.257701 -2.114885 -6.818765 -52.206021 -26.514512 73.352819 30.404737 29.022363 23.594168 0.000000 0.000000 0.000000 -4.321318 -4.380583 19.403361 2.978015 1.985674 -24.641210 8.051167 6.532792 30.823906 -2.359281 5.737666 -24.178436 0.000000 0.000000 0.000000 -16.149407 -5.925700 -42.769948 -49.917782 31.365310 -15.442984 -39.970169 -23.203230 3.846691 0.000000 0.000000 0.000000 6.325876 -6.755769 11.754827 69.099876 11.742092 14.896522 -11.537088 42.184765 -1.471522 0.000000 0.000000 0.000000 
-0.290854 0.913066 1.255343 -172.850010 50.316997 -171.216064 -1.385815 -1.168301 -2.351194 -5.399703 -7.816111 22.872771 35.072851 6.867710 8.896763 0.000000 0.000000 0.000000 5.100892 -4.688403 -17.586711 -63.356511 -22.212065 78.984174 37.308923 34.394508 25.863397 0.000000 0.000000 0.000000 -2.903478 -5.862995 21.561199 2.850609 1.953731 -25.139831 7.477186 3.723636 30.532312 -3.231882 6.101259 -26.529129 0.000000 0.000000 0.000000 -14.862084 -5.586459 -42.126556 -50.404173 28.477642 -15.027593 -46.788079 -26.449487 6.112457 0.000000 0.000000 0.000000 6.359695 -8.926901 10.048801 67.958009 10.383489 14.230923 -10.531364 43.530633 -0.598778 0.000000 0.000000 0.000000 
-0.227727 0.929229 1.211696 -171.875772 46.462318 -168.998715 0.987748 -3.599776 3.928977 -2.625216 -4.767900 16.178657 28.810978 2.071291 9.443784 0.000000 0.000000 0.000000 8.096963 -9.410327 -27.053212 -51.982626 -22.611116 68.202176 31.715123 30.466216 18.081359 0.000000 0.000000 0.000000 -0.519687 -5.664485 20.428244 1.857133 1.901132 -25.373170 6.700581 -1.685933 30.074803 -5.907227 6.067564 -27.979690 0.000000 0.000000 0.000000 -12.806865 -2.991434 -40.914108 -52.619382 26.098881 -16.564934 -52.945900 -30.579818 8.575912 0.000000 0.000000 0.000000 4.152188 -8.514020 7.925725 67.806798 6.620709 13.600730 -8.091869 45.196725 0.796944 0.000000 0.000000 0.000000 
-0.156449 0.959580 1.160351 -170.834273 43.425313 -167.439576 3.013093 -7.355057 9.355084 -3.309600 -3.358429 11.606248 15.174678 2.199685 18.453320 0.000000 0.000000 0.000000 11.622587 -13.449296 -33.967183 -34.688933 -20.738222 52.075176 29.195428 23.087586 20.388173 0.000000 0.000000 0.000000 1.733863 -5.586523 19.303077 0.634047 1.529410 -27.185445 6.474658 -6.261594 30.183583 -8.038955 5.620504 -28.257865 0.000000 0.000000 0.000000 -10.649604 -1.867256 -39.288023 -53.849269 25.886269 -18.624603 -59.658936 -30.894623 9.647831 0.000000 0.000000 0.000000 4.754185 -9.108164 7.421884 65.319189 4.061042 11.257114 -4.877054 47.178666 2.667171 0.000000 0.000000 0.000000 
-0.079749 0.991856 1.102826 -171.153367 41.215201 -167.491546 3.279960 -8.159920 9.923388 -3.434378 -4.363433 15.715595 8.075065 5.601844 31.116266 0.000000 0.000000 0.000000 12.737461 -13.629540 -34.411234 -17.488057 -16.983829 35.655269 20.702668 14.258164 23.457372 0.000000 0.000000 0.000000 3.575496 -5.092171 17.727708 1.553820 1.671657 -27.242906 4.693300 -7.296308 30.245969 -9.333725 4.182679 -27.795782 0.000000 0.000000 0.000000 -10.841764 -1.438747 -41.143387 -51.188107 28.967562 -18.768222 -66.446686 -26.931787 9.483723 0.000000 0.000000 0.000000 0.614007 -9.436422 4.565808 69.392029 -0.980739 14.024611 -5.077440 46.257242 2.544049 0.000000 0.000000 0.000000 
-0.001301 1.014083 1.042086 -171.996632 37.961716 -170.055395 3.548472 -7.691873 7.768113 -5.436127 -7.926027 24.295708 13.284104 5.456672 36.400046 0.000000 0.000000 0.000000 11.324044 -10.896813 -29.570697 -7.913889 -12.025540 22.111082 16.842358 7.923316 24.981250 0.000000 0.000000 0.000000 4.376734 -6.062386 18.551309 0.369879 1.433341 -27.689716 5.485348 -7.279441 29.048446 -7.852085 3.033010 -24.989774 0.000000 0.000000 0.000000 -10.008472 -2.713271 -42.977068 -49.721633 32.734980 -19.836216 -70.311327 -22.130939 6.998418 0.000000 0.000000 0.000000 0.826549 -9.070547 6.442889 68.688370 -2.236672 13.481035 -6.220207 47.965161 2.075378 0.000000 0.000000 0.000000 
0.077501 1.014534 0.980286 -173.529496 37.803248 -171.634724 3.414754 -4.606613 1.048093 -12.763150 -13.656038 34.644814 23.286954 5.689445 34.982230 0.000000 0.000000 0.000000 11.457207 -7.169090 -24.638124 -5.258544 -10.239769 17.111551 12.203173 4.681672 24.373553 0.000000 0.000000 0.000000 3.725931 -5.225521 17.693263 1.518590 1.711173 -27.082266 5.236215 -4.864150 28.284530 -6.454373 1.006197 -21.326221 0.000000 0.000000 0.000000 -9.564965 -3.906171 -44.882048 -47.279638 37.300124 -20.494524 -70.375415 -18.124543 4.467925 0.000000 0.000000 0.000000 3.180734 -11.272233 8.270546 66.765299 -1.901482 12.275834 -5.038890 47.941637 2.379143 0.000000 0.000000 0.000000 
0.155099 0.993288 0.918323 -174.086813 38.725282 -173.981778 4.493328 -3.359747 -7.007456 -28.609211 -18.407411 45.682843 36.070592 9.171105 41.950409 0.000000 0.000000 0.000000 12.088182 -3.005902 -17.950418 -6.059117 -11.907903 18.333813 8.911076 1.714534 18.808385 0.000000 0.000000 0.000000 3.489362 -5.969172 19.115851 -0.505619 1.300810 -27.930324 8.231361 -0.666733 28.750419 -5.616045 -1.250492 -18.398466 0.000000 0.000000 0.000000 -11.309839 -5.769271 -50.184413 -42.212214 44.799834 -19.110875 -68.401183 -14.892750 3.981431 0.000000 0.000000 0.000000 3.808111 -11.668876 10.862498 65.619400 2.022606 13.808677 -6.925845 47.050568 1.221364 0.000000 0.000000 0.000000 
0.227770 0.964715 0.857453 -175.014862 40.443864 -177.400394 4.367963 -3.884264 -15.660156 -39.760808 -20.062794 52.285163 48.010195 14.470650 47.497084 0.000000 0.000000 0.000000 12.922499 -0.177236 -10.754619 -10.842628 -15.938823 24.373630 13.297089 1.000626 6.430432 0.000000 0.000000 0.000000 1.647709 -6.857190 21.231187 0.120702 1.549502 -27.322509 9.609047 3.417965 29.399598 -3.769869 -0.348402 -20.570180 0.000000 0.000000 0.000000 -13.578896 -5.457718 -53.683834 -37.184378 47.661452 -15.897639 -64.785641 -12.431721 3.903820 0.000000 0.000000 0.000000 4.761322 -10.981233 13.316936 63.831256 7.956592 15.192280 -7.702953 45.925906 0.783586 0.000000 0.000000 0.000000 
0.298048 0.951924 0.797096 -175.196662 43.800035 -178.194300 5.252357 -6.356733 -23.039490 -34.787218 -18.494215 44.185016 49.590809 15.175556 46.020864 0.000000 0.000000 0.000000 13.101854 0.650103 -3.336758 -10.112070 -15.794414 23.760389 17.194362 2.523252 3.431071 0.000000 0.000000 0.000000 0.914939 -6.666023 21.390595 -1.503411 1.179968 -27.731825 12.220421 7.316680 30.902615 -3.647301 -0.827370 -20.039054 0.000000 0.000000 0.000000 -14.029148 -6.499530 -54.821088 -36.290355 51.106185 -15.935178 -59.075993 -12.455439 3.291488 0.000000 0.000000 0.000000 4.503642 -10.220125 14.593550 64.006476 14.214232 19.167505 -10.522725 46.453965 0.026787 0.000000 0.000000 0.000000 
0.369831 0.960362 0.734592 -174.316707 46.920640 -177.022497 6.441263 -7.654439 -25.869161 -17.632904 -12.042760 27.590408 39.370432 8.350102 35.151533 0.000000 0.000000 0.000000 12.648348 -0.560161 3.738945 -7.322570 -13.029642 19.694234 19.863323 4.216367 8.321644 0.000000 0.000000 0.000000 0.398747 -5.569166 19.975515 -2.605541 0.623925 -29.340262 14.747659 9.127197 33.056033 -2.976741 -0.614327 -20.504191 0.000000 0.000000 0.000000 -13.209568 -6.074769 -56.213946 -35.869293 53.593556 -16.858822 -56.326096 -10.079174 1.202007 0.000000 0.000000 0.000000 3.952833 -10.085125 15.231658 65.742117 17.990986 23.131593 -15.469611 47.527801 -1.293971 0.000000 0.000000 0.000000 
0.445518 0.977898 0.668851 -174.797821 48.631553 -176.238932 6.215372 -7.274470 -25.458283 -8.891236 -6.100723 7.756438 26.258532 2.684978 33.844030 0.000000 0.000000 0.000000 11.673454 -3.116873 9.815173 -6.871114 -9.464806 16.115034 20.855436 4.839740 14.383380 0.000000 0.000000 0.000000 -0.904636 -3.070824 15.730904 -2.127076 1.169329 -27.221014 14.434625 9.372787 31.718931 -2.080295 -0.920970 -19.590901 0.000000 0.000000 0.000000 -10.854617 -5.715399 -54.860207 -38.599990 55.410537 -20.806220 -54.814922 -8.760904 -0.842432 0.000000 0.000000 0.000000 3.019037 -10.342075 14.299916 67.448135 18.305616 25.636208 -15.594828 50.918497 -0.700069 0.000000 0.000000 0.000000 
0.525650 0.985791 0.600750 -175.285444 51.656385 -178.301911 5.989726 -5.139557 -20.743012 -6.676940 -5.672365 -1.245443 14.456979 5.476832 35.117966 0.000000 0.000000 0.000000 9.195843 -5.557589 14.197546 -7.635361 -10.086774 18.064047 18.901471 7.219104 20.368832 0.000000 0.000000 0.000000 -2.786792 -2.270538 14.098770 -1.470679 1.441415 -26.271181 13.841387 9.583400 32.056556 1.508268 -0.482963 -17.700642 0.000000 0.000000 0.000000 -8.994127 -2.380233 -51.866344 -45.033098 55.686105 -27.635104 -55.339563 -8.459949 -2.064936 0.000000 0.000000 0.000000 0.088382 -7.376062 13.248672 70.641373 16.815752 27.776894 -17.341121 54.592916 -1.324524 0.000000 0.000000 0.000000 
0.605062 0.973036 0.531281 -177.948874 54.460011 177.117077 2.044937 -3.124010 -17.431208 -4.551474 -3.783828 5.491182 11.730607 6.029551 29.603748 0.000000 0.000000 0.000000 5.656752 -6.250733 15.297506 -17.615746 -16.827867 31.871039 22.821309 13.818213 22.855489 0.000000 0.000000 0.000000 -5.015162 -2.678892 15.226566 -2.775275 1.081089 -27.229637 15.434120 9.999539 32.208372 0.476459 1.492331 -19.271105 0.000000 0.000000 0.000000 -8.673674 -1.427832 -48.692642 -46.055127 53.811575 -28.205755 -56.815404 -10.140820 -1.508461 0.000000 0.000000 0.000000 -1.673918 -6.832730 10.073411 74.014564 11.446039 26.559361 -13.005852 59.376526 1.461452 0.000000 0.000000 0.000000 
0.676911 0.946149 0.464447 -179.926965 54.649940 173.679884 0.554051 -2.309999 -15.554599 -7.908757 -6.293768 16.529045 19.852324 7.254834 22.653002 0.000000 0.000000 0.000000 3.677066 -4.012910 10.242526 -46.018977 -24.503378 59.210008 37.122360 23.479062 35.219176 0.000000 0.000000 0.000000 -7.400510 -3.417914 17.016496 -0.897392 1.575401 -26.821067 13.114956 7.631452 31.463622 -0.528710 3.458403 -20.175974 0.000000 0.000000 0.000000 -10.865371 -1.288301 -44.999137 -46.977172 48.217386 -25.106048 -56.340468 -15.508424 1.715586 0.000000 0.000000 0.000000 0.156896 -4.912576 10.295823 73.093822 10.995272 22.123793 -9.016620 60.164516 3.034479 0.000000 0.000000 0.000000 
0.740079 0.925900 0.404822 -179.876759 54.498902 171.254497 -1.552830 -1.230018 -12.145588 -9.156491 -8.936471 24.359952 28.583767 9.757246 20.258376 0.000000 0.000000 0.000000 3.951098 -1.690506 2.015146 -79.272743 -17.316478 79.892853 58.625251 26.947317 56.697166 0.000000 0.000000 0.000000 -7.612084 -4.400928 19.612170 0.448199 1.952187 -25.727717 9.879123 5.531478 31.033586 -2.005507 5.696132 -23.283002 0.000000 0.000000 0.000000 -14.885723 -2.627140 -44.543872 -44.886932 41.649361 -18.448567 -58.302303 -23.633200 7.442655 0.000000 0.000000 0.000000 3.515844 -5.640377 10.919523 72.556846 12.974200 18.745513 -3.883399 54.005431 4.099645 0.000000 0.000000 0.000000 
